#N canvas 94 104 1920 1157 12;
#X obj 306 29 keyname;
#X symbolatom 352 58 10 0 0 0 - - - 0;
#X floatatom 306 58 4 0 0 0 - - - 0;
#X obj 313 96 pack 0 s;
#X msg 313 131 \$2 \$1;
#X obj 314 158 route Control_L;
#X msg 449 124 \$2 \$1;
#X obj 316 204 change;
#X obj 316 244 sel 0;
#X obj 312 300 bng 19 250 50 0 empty empty empty 0 -10 0 12 #fcfcfc #000000 #000000;
#X obj 448 194 sel 0;
#X obj 451 227 bng 19 250 50 0 empty empty empty 0 -10 0 12 #fcfcfc #000000 #000000;
#X obj 349 352 spigot;
#X msg 451 262 1;
#X obj 104 105 tgl 30 0 empty empty PERFORM? 38 17 0 15 #fcfcfc #000000 #000000 0 1;
#X obj 103 204 key;
#X obj 100 249 pack 0 1;
#X obj 174 203 keyup;
#X obj 179 246 pack 0 0;
#X obj 124 328 s keymerge;
#X obj 19 204 r keymerge;
#X obj 23 268 print;
#X obj 19 247 spigot;
#X obj 450 150 route E;
#X msg 515 123 \$2 \$1;
#X obj 516 149 route e;
#X msg 349 319 0;
#X obj 13 298 outlet;
#X connect 0 0 2 0;
#X connect 0 1 1 0;
#X connect 1 0 3 1;
#X connect 2 0 3 0;
#X connect 3 0 4 0;
#X connect 3 0 6 0;
#X connect 3 0 24 0;
#X connect 4 0 5 0;
#X connect 5 0 7 0;
#X connect 6 0 23 0;
#X connect 7 0 8 0;
#X connect 8 0 9 0;
#X connect 9 0 12 0;
#X connect 9 0 26 0;
#X connect 10 0 11 0;
#X connect 11 0 13 0;
#X connect 12 0 14 0;
#X connect 13 0 12 1;
#X connect 14 0 22 1;
#X connect 15 0 16 0;
#X connect 16 0 19 0;
#X connect 17 0 18 0;
#X connect 18 0 19 0;
#X connect 20 0 22 0;
#X connect 22 0 21 0;
#X connect 22 0 27 0;
#X connect 23 0 10 0;
#X connect 24 0 25 0;
#X connect 25 0 10 0;
#X connect 26 0 12 1;
#X coords 0 -1 1 1 120 40 1 100 100;
